
CASCADE Topology V1, (c) Matra-Datavision
Locations 14
1
1.000000000000000 0.000000000000000 0.000000000000000 0.000000000000000 
0.000000000000000 1.000000000000000 0.000000000000000 0.000000000000000 
0.000000000000000 0.000000000000000 1.000000000000000 0.000000000000000 
1
1.000000000000000 0.000000000000000 0.000000000000000 0.000000000000000 
0.000000000000000 1.000000000000000 0.000000000000000 0.000000000000000 
0.000000000000000 0.000000000000000 1.000000000000000 0.000000000000000 
2  2 -1 0
1
1.000000000000000 0.000000000000000 0.000000000000000 0.000000000000000 
0.000000000000000 1.000000000000000 0.000000000000000 0.000000000000000 
0.000000000000000 0.000000000000000 1.000000000000000 0.000000000000000 
1
1.000000000000000 0.000000000000000 0.000000000000000 0.000000000000000 
0.000000000000000 1.000000000000000 0.000000000000000 0.000000000000000 
0.000000000000000 0.000000000000000 1.000000000000000 0.000000000000000 
1
1.000000000000000 0.000000000000000 0.000000000000000 0.000000000000000 
0.000000000000000 1.000000000000000 0.000000000000000 0.000000000000000 
0.000000000000000 0.000000000000000 1.000000000000000 0.000000000000000 
2  4 1 5 1 6 -1 0
2  2 -1 6 1 5 -1 4 -1 0
1
1.000000000000000 0.000000000000000 0.000000000000000 0.000000000000000 
0.000000000000000 1.000000000000000 0.000000000000000 0.000000000000000 
0.000000000000000 0.000000000000000 1.000000000000000 60.000000000000000 
2  4 1 5 1 6 -1 9 1 0
2  2 -1 9 -1 6 1 5 -1 4 -1 0
2  6 -1 0
2  4 1 5 1 0
2  6 -1 9 1 0
Curve2ds 0
Curves 12
1 -29.99999999999999645 24.99999999999999645 0.00000000000000000 0.00000000000000000 0.00000000000000000 1.00000000000000000 
1 -29.99999999999999645 -25.00000000000000355 0.00000000000000000 0.00000000000000000 0.00000000000000000 1.00000000000000000 
1 -29.99999999999999645 24.99999999999999645 0.00000000000000000 0.00000000000000000 -1.00000000000000000 0.00000000000000000 
1 -29.99999999999999645 24.99999999999999645 0.00000000000000000 0.00000000000000000 -1.00000000000000000 0.00000000000000000 
1 30.00000000000000355 -25.00000000000000355 0.00000000000000000 0.00000000000000000 0.00000000000000000 1.00000000000000000 
1 -29.99999999999999645 -25.00000000000000355 0.00000000000000000 1.00000000000000000 0.00000000000000000 0.00000000000000000 
1 -29.99999999999999645 -25.00000000000000355 0.00000000000000000 1.00000000000000000 0.00000000000000000 0.00000000000000000 
1 30.00000000000000355 24.99999999999999645 0.00000000000000000 0.00000000000000000 0.00000000000000000 1.00000000000000000 
1 30.00000000000000355 -25.00000000000000355 0.00000000000000000 0.00000000000000000 1.00000000000000000 0.00000000000000000 
1 30.00000000000000355 -25.00000000000000355 0.00000000000000000 0.00000000000000000 1.00000000000000000 0.00000000000000000 
1 30.00000000000000355 24.99999999999999645 0.00000000000000000 -1.00000000000000000 0.00000000000000000 0.00000000000000000 
1 30.00000000000000355 24.99999999999999645 0.00000000000000000 -1.00000000000000000 0.00000000000000000 0.00000000000000000 
Polygon3D 0
PolygonOnTriangulations 0
Surfaces 6
1 -29.99999999999999645 24.99999999999999645 0.00000000000000000 1.00000000000000000 0.00000000000000000 0.00000000000000000 0.00000000000000000 -1.00000000000000000 0.00000000000000000 0.00000000000000000 0.00000000000000000 -1.00000000000000000 
1 -29.99999999999999645 -25.00000000000000355 0.00000000000000000 0.00000000000000000 1.00000000000000000 0.00000000000000000 1.00000000000000000 0.00000000000000000 0.00000000000000000 0.00000000000000000 0.00000000000000000 -1.00000000000000000 
1 30.00000000000000355 -25.00000000000000355 0.00000000000000000 -1.00000000000000000 0.00000000000000000 0.00000000000000000 0.00000000000000000 1.00000000000000000 0.00000000000000000 0.00000000000000000 0.00000000000000000 -1.00000000000000000 
1 30.00000000000000355 24.99999999999999645 0.00000000000000000 0.00000000000000000 -1.00000000000000000 0.00000000000000000 -1.00000000000000000 0.00000000000000000 0.00000000000000000 -0.00000000000000000 -0.00000000000000000 -1.00000000000000000 
1 0.00000000000000413 -0.00000000000000310 0.00000000000000000 0.00000000000000000 0.00000000000000000 1.00000000000000000 1.00000000000000000 0.00000000000000000 0.00000000000000000 0.00000000000000000 1.00000000000000000 0.00000000000000000 
1 0.00000000000000413 -0.00000000000000310 0.00000000000000000 0.00000000000000000 0.00000000000000000 1.00000000000000000 1.00000000000000000 0.00000000000000000 0.00000000000000000 0.00000000000000000 1.00000000000000000 0.00000000000000000 
Triangulations 0

TShapes 34
Ve
0.000000100000004
-29.999999999999996 24.999999999999996 0.000000000000000
0 0

0101101
*
Ve
0.000000100000004
-29.999999999999996 24.999999999999996 60.000000000000000
0 0

0101101
*
Ed
 0.000000100000004 1 1 0
1  1 0 0.000000000000000 60.000000000000000
0

0101000
+34 3 -33 3 *
Ve
0.000000100000004
-29.999999999999996 -25.000000000000004 0.000000000000000
0 0

0101101
*
Ve
0.000000100000004
-29.999999999999996 -25.000000000000004 60.000000000000000
0 0

0101101
*
Ed
 0.000000100000000 1 1 0
1  2 0 0.000000000000000 60.000000000000000
0

0101000
+31 3 -30 3 *
Ed
 0.000000100000004 1 1 0
1  3 0 0.000000000000000 50.000000000000000
0

0101000
+34 8 -31 8 *
Ed
 0.000000100000004 1 1 0
1  4 0 0.000000000000000 50.000000000000000
0

0101000
+33 11 -30 11 *
Wi

0101100
+32 0 -29 0 -28 7 +27 10 *
Fa
0  0.000000100000000 1 0

0101000
+26 0 *
Ve
0.000000100000000
30.000000000000004 -25.000000000000004 0.000000000000000
0 0

0101101
*
Ve
0.000000100000000
30.000000000000004 -25.000000000000004 60.000000000000000
0 0

0101101
*
Ed
 0.000000100000000 1 1 0
1  5 0 0.000000000000000 60.000000000000000
0

0101000
+24 3 -23 3 *
Ed
 0.000000100000000 1 1 0
1  6 0 0.000000000000000 60.000000000000000
0

0101000
+31 8 -24 8 *
Ed
 0.000000100000000 1 1 0
1  7 0 0.000000000000000 60.000000000000000
0

0101000
+30 11 -23 11 *
Wi

0101100
+29 0 -22 0 -21 7 +20 10 *
Fa
0  0.000000100000000 2 0

0101000
+19 0 *
Ve
0.000000100000000
30.000000000000004 24.999999999999996 0.000000000000000
0 0

0101101
*
Ve
0.000000100000000
30.000000000000004 24.999999999999996 60.000000000000000
0 0

0101101
*
Ed
 0.000000100000000 1 1 0
1  8 0 0.000000000000000 60.000000000000000
0

0101000
+17 3 -16 3 *
Ed
 0.000000100000000 1 1 0
1  9 0 0.000000000000000 50.000000000000000
0

0101000
+24 8 -17 8 *
Ed
 0.000000100000000 1 1 0
1  10 0 0.000000000000000 50.000000000000000
0

0101000
+23 11 -16 11 *
Wi

0101100
+22 0 -15 0 -14 7 +13 10 *
Fa
0  0.000000100000000 3 0

0101000
+12 0 *
Ed
 0.000000100000000 1 1 0
1  11 0 0.000000000000000 60.000000000000000
0

0101000
+17 8 -34 8 *
Ed
 0.000000100000000 1 1 0
1  12 0 0.000000000000000 60.000000000000000
0

0101000
+16 11 -33 11 *
Wi

0101100
+15 0 -32 0 -10 7 +9 10 *
Fa
0  0.000000100000000 4 0

0101000
+8 0 *
Wi

0101100
+28 0 +21 0 +14 0 +10 0 *
Fa
0  0.000000100000000 5 0

0101000
+6 13 *
Wi

0101100
+27 0 +20 0 +13 0 +9 0 *
Fa
0  0.000000100000000 6 0

0101000
+4 13 *
Sh

0101100
+25 0 +18 0 +11 0 +7 0 +5 12 -3 14 *
So

1100000
-2 0 *

+1 1 