
CASCADE Topology V1, (c) Matra-Datavision
Locations 10
1
1.000000000000000 0.000000000000000 0.000000000000000 0.000000000000000 
0.000000000000000 1.000000000000000 0.000000000000000 0.000000000000000 
0.000000000000000 0.000000000000000 1.000000000000000 0.000000000000000 
1
1.000000000000000 0.000000000000000 0.000000000000000 0.000000000000000 
0.000000000000000 1.000000000000000 0.000000000000000 0.000000000000000 
0.000000000000000 0.000000000000000 1.000000000000000 0.000000000000000 
1
1.000000000000000 0.000000000000000 0.000000000000000 0.000000000000000 
0.000000000000000 1.000000000000000 0.000000000000000 0.000000000000000 
0.000000000000000 0.000000000000000 1.000000000000000 0.000000000000000 
1
1.000000000000000 0.000000000000000 0.000000000000000 0.000000000000000 
0.000000000000000 1.000000000000000 0.000000000000000 0.000000000000000 
0.000000000000000 0.000000000000000 1.000000000000000 0.000000000000000 
2  2 1 3 1 4 -1 0
1
1.000000000000000 0.000000000000000 0.000000000000000 0.000000000000000 
0.000000000000000 1.000000000000000 0.000000000000000 0.000000000000000 
0.000000000000000 0.000000000000000 1.000000000000000 60.000000000000000 
2  2 1 3 1 4 -1 6 1 0
2  4 -1 0
2  2 1 3 1 0
2  4 -1 6 1 0
Curve2ds 0
Curves 8
1 -29.99999999999999645 24.99999999999999645 0.00000000000000000 0.00000000000000000 0.00000000000000000 1.00000000000000000 
1 -29.99999999999999645 -25.00000000000000355 0.00000000000000000 0.00000000000000000 0.00000000000000000 1.00000000000000000 
1 -29.99999999999999645 24.99999999999999645 0.00000000000000000 0.00000000000000000 -1.00000000000000000 0.00000000000000000 
1 30.00000000000000355 -25.00000000000000355 0.00000000000000000 0.00000000000000000 0.00000000000000000 1.00000000000000000 
1 -29.99999999999999645 -25.00000000000000355 0.00000000000000000 1.00000000000000000 0.00000000000000000 0.00000000000000000 
1 30.00000000000000355 24.99999999999999645 0.00000000000000000 0.00000000000000000 0.00000000000000000 1.00000000000000000 
1 30.00000000000000355 -25.00000000000000355 0.00000000000000000 0.00000000000000000 1.00000000000000000 0.00000000000000000 
1 30.00000000000000355 24.99999999999999645 0.00000000000000000 -1.00000000000000000 0.00000000000000000 0.00000000000000000 
Polygon3D 0
PolygonOnTriangulations 0
Surfaces 5
1 -29.99999999999999645 24.99999999999999645 0.00000000000000000 1.00000000000000000 0.00000000000000000 -0.00000000000000000 0.00000000000000000 -1.00000000000000000 0.00000000000000000 0.00000000000000000 -0.00000000000000000 -1.00000000000000000 
1 -29.99999999999999645 -25.00000000000000355 0.00000000000000000 0.00000000000000000 1.00000000000000000 0.00000000000000000 1.00000000000000000 0.00000000000000000 0.00000000000000000 0.00000000000000000 0.00000000000000000 -1.00000000000000000 
1 30.00000000000000355 -25.00000000000000355 0.00000000000000000 -1.00000000000000000 0.00000000000000000 0.00000000000000000 0.00000000000000000 1.00000000000000000 0.00000000000000000 0.00000000000000000 0.00000000000000000 -1.00000000000000000 
1 30.00000000000000355 24.99999999999999645 0.00000000000000000 0.00000000000000000 -1.00000000000000000 0.00000000000000000 -1.00000000000000000 0.00000000000000000 0.00000000000000000 -0.00000000000000000 -0.00000000000000000 -1.00000000000000000 
1 0.00000000000000413 -0.00000000000000310 0.00000000000000000 0.00000000000000000 0.00000000000000000 1.00000000000000000 1.00000000000000000 0.00000000000000000 -0.00000000000000000 -0.00000000000000000 1.00000000000000000 0.00000000000000000 
Triangulations 0

TShapes 24
Ve
0.000000100000004
-29.999999999999996 24.999999999999996 0.000000000000000
0 0

0101101
*
Ed
 0.000000100000004 1 1 0
1  1 0 0.000000000000000 60.000000000000000
0

0101000
+24 5 -24 7 *
Ve
0.000000100000004
-29.999999999999996 -25.000000000000004 0.000000000000000
0 0

0101101
*
Ed
 0.000000100000000 1 1 0
1  2 0 0.000000000000000 60.000000000000000
0

0101000
+22 5 -22 7 *
Ed
 0.000000100000004 1 1 0
1  3 0 0.000000000000000 50.000000000000000
0

0101000
+24 0 -22 0 *
Wi

0101100
+23 0 -21 0 -20 5 +20 7 *
Fa
0  0.000000100000000 1 0

0101000
+19 0 *
Ve
0.000000100000000
30.000000000000004 -25.000000000000004 0.000000000000000
0 0

0101101
*
Ed
 0.000000100000000 1 1 0
1  4 0 0.000000000000000 60.000000000000000
0

0101000
+17 5 -17 7 *
Ed
 0.000000100000000 1 1 0
1  5 0 0.000000000000000 60.000000000000000
0

0101000
+22 0 -17 0 *
Wi

0101100
+21 0 -16 0 -15 5 +15 7 *
Fa
0  0.000000100000000 2 0

0101000
+14 0 *
Ve
0.000000100000000
30.000000000000004 24.999999999999996 0.000000000000000
0 0

0101101
*
Ed
 0.000000100000000 1 1 0
1  6 0 0.000000000000000 60.000000000000000
0

0101000
+12 5 -12 7 *
Ed
 0.000000100000000 1 1 0
1  7 0 0.000000000000000 50.000000000000000
0

0101000
+17 0 -12 0 *
Wi

0101100
+16 0 -11 0 -10 5 +10 7 *
Fa
0  0.000000100000000 3 0

0111000
+9 0 *
Ed
 0.000000100000000 1 1 0
1  8 0 0.000000000000000 60.000000000000000
0

0101000
+12 0 -24 0 *
Wi

0101100
+11 0 -23 0 -7 5 +7 7 *
Fa
0  0.000000100000000 4 0

0111000
+6 0 *
Wi

0101100
+20 0 +15 0 +10 0 +7 0 *
Fa
0  0.000000100000000 5 0

0111000
+4 9 *
Sh

0101100
+18 0 +13 0 +8 0 +5 0 +3 8 -3 10 *
So

1100000
-2 0 *

+1 1 